<svg id="Capa_1" enable-background="new 0 0 512 512" height="512" viewBox="0 0 512 512" width="512" xmlns="http://www.w3.org/2000/svg"><g><g><ellipse cx="265.254" cy="160.638" fill="#9781dd" rx="89.318" ry="88.158"/><path d="m265.254 72.48c-3.942 0-7.815.279-11.622.768 28.093 4.193 50.513 25.458 56.035 52.754 1.119 5.53-3.995 10.361-9.465 8.977-9.939-2.514-27.654-4.666-56.746-1.389-45.484 5.123-63.156 33.904-66.782 15.89-.468 3.658-.737 7.376-.737 11.159 0 48.689 39.989 88.158 89.318 88.158s89.318-39.47 89.318-88.158c-.001-48.689-39.99-88.159-89.319-88.159z" fill="#8962de"/><ellipse cx="265.254" cy="331.143" fill="#d789b9" rx="172.192" ry="170.11"/><g fill="#9781dd"><path d="m263.851 403.808s-13.949 44.252-73.111 80.326c0 0 24.05 17.316 72.63 17.797 48.581.481 69.263-14.911 69.263-14.911s-65.896-44.732-68.782-83.212z"/><circle cx="177.714" cy="284.146" r="29.263"/><ellipse cx="196.247" cy="382.664" rx="26.336" ry="26.336" transform="matrix(.227 -.974 .974 .227 -220.996 486.842)"/><circle cx="352.314" cy="284.146" r="29.263"/><ellipse cx="333.781" cy="382.664" rx="26.336" ry="26.336" transform="matrix(.389 -.921 .921 .389 -148.568 541.35)"/></g><path d="m241.919 441.816c-2.21.101-4.432.158-6.668.158-73.689 0-134.283-55.378-141.473-126.304-.465 5.098-.716 10.257-.716 15.474 0 70.725 43.692 131.362 105.861 157.023 14.125-15.665 27.092-31.758 42.996-46.351z" fill="#c668b9"/><path d="m280.88 434.568c-12.318 4.121-25.389 6.629-38.961 7.248-15.904 14.593-28.871 30.686-42.996 46.35 20.416 8.427 42.821 13.088 66.331 13.088 23.887 0 46.637-4.808 67.315-13.493-18.258-16.908-37.094-33.118-51.689-53.193z" fill="#8962de"/><path d="m350.147 404.278c6.42-9.63 10.439-21.056 7.142-30.702-7.743 12.764-17.465 24.219-28.77 33.933 8.091 2.661 16.536 4.408 21.628-3.231z" fill="#8962de"/><path d="m265.254 161.033c-5.281 0-10.503.248-15.663.707 71.794 7.104 127.849 66.965 127.849 139.764 0 26.355-7.368 51-20.151 72.073 3.297 9.645-.722 21.072-7.142 30.702-5.093 7.639-13.538 5.891-21.628 3.231-13.802 11.858-29.936 21.136-47.639 27.059 14.596 20.075 33.431 36.285 51.69 53.192 61.647-25.892 104.877-86.265 104.877-156.617-.001-93.95-77.094-170.111-172.193-170.111z" fill="#c668b9"/><path d="m64.726 8.019 8.827 24.821c.378 1.063 1.126 1.905 2.07 2.33l22.052 9.935c3.115 1.404 3.115 6.368 0 7.771l-22.052 9.935c-.944.425-1.692 1.268-2.07 2.33l-8.827 24.821c-1.247 3.507-5.657 3.507-6.904 0l-8.827-24.821c-.378-1.063-1.126-1.905-2.07-2.33l-22.052-9.935c-3.116-1.404-3.116-6.368 0-7.771l22.052-9.935c.944-.425 1.692-1.268 2.07-2.33l8.827-24.821c1.247-3.507 5.657-3.507 6.904 0z" fill="#c2b2eb"/><path d="m445.52 88.498 6.548 18.411c.28.788.835 1.413 1.536 1.729l16.358 7.37c2.311 1.041 2.311 4.723 0 5.765l-16.358 7.37c-.7.316-1.255.94-1.536 1.729l-6.548 18.412c-.925 2.601-4.196 2.601-5.122 0l-6.548-18.412c-.28-.788-.835-1.413-1.536-1.729l-16.358-7.37c-2.311-1.041-2.311-4.723 0-5.765l16.358-7.37c.701-.316 1.255-.94 1.536-1.729l6.548-18.411c.925-2.602 4.197-2.602 5.122 0z" fill="#c2b2eb"/><ellipse cx="466.727" cy="19.275" fill="#9781dd" rx="19.275" ry="19.275" transform="matrix(.385 -.923 .923 .385 269.275 442.616)"/><circle cx="91.667" cy="134.461" fill="#9781dd" r="8.315"/></g><g><g fill="#3c122c"><path d="m177.714 319.857c-19.691 0-35.71-16.02-35.71-35.711s16.02-35.71 35.71-35.71c19.691 0 35.71 16.019 35.71 35.71s-16.02 35.711-35.71 35.711zm0-58.526c-12.58 0-22.815 10.234-22.815 22.815 0 12.58 10.235 22.815 22.815 22.815s22.815-10.235 22.815-22.815c-.001-12.58-10.235-22.815-22.815-22.815z"/><path d="m196.247 415.448c-18.077 0-32.784-14.706-32.784-32.784s14.707-32.784 32.784-32.784 32.784 14.707 32.784 32.784-14.707 32.784-32.784 32.784zm0-52.673c-10.967 0-19.889 8.922-19.889 19.889 0 10.966 8.922 19.888 19.889 19.888 10.966 0 19.888-8.922 19.888-19.888 0-10.967-8.922-19.889-19.888-19.889z"/><path d="m352.314 319.857c-19.691 0-35.71-16.02-35.71-35.711s16.02-35.71 35.71-35.71 35.71 16.019 35.71 35.71-16.019 35.711-35.71 35.711zm0-58.526c-12.58 0-22.815 10.234-22.815 22.815 0 12.58 10.235 22.815 22.815 22.815s22.815-10.235 22.815-22.815-10.235-22.815-22.815-22.815z"/><path d="m333.781 415.448c-18.077 0-32.784-14.706-32.784-32.784s14.707-32.784 32.784-32.784 32.784 14.707 32.784 32.784-14.707 32.784-32.784 32.784zm0-52.673c-10.966 0-19.888 8.922-19.888 19.889 0 10.966 8.922 19.888 19.888 19.888 10.967 0 19.889-8.922 19.889-19.888 0-10.967-8.922-19.889-19.889-19.889z"/><path d="m478.718 320.398h-30.858c-1.338-22.459-6.83-43.83-15.743-63.365l29.446-17.001c5.139-2.967 6.901-9.54 3.933-14.679-2.967-5.14-9.541-6.902-14.679-3.933l-28.785 16.619c-14.596-23.931-34.632-44.269-58.41-59.32 1.103-5.865 1.696-11.905 1.696-18.08 0-33.087-16.526-62.43-41.845-80.393l12.475-26.614c2.519-5.374.205-11.772-5.169-14.291-5.372-2.519-11.772-.204-14.291 5.169l-11.824 25.225c-12.101-5.145-25.423-8-39.409-8s-27.309 2.855-39.409 8l-11.824-25.225c-2.519-5.374-8.916-7.69-14.291-5.169-5.374 2.519-7.688 8.917-5.169 14.291l12.475 26.614c-25.319 17.964-41.846 47.306-41.846 80.393 0 6.176.591 12.217 1.694 18.081-23.777 15.051-43.813 35.388-58.408 59.319l-28.786-16.619c-5.14-2.967-11.711-1.207-14.679 3.933s-1.206 11.712 3.933 14.679l29.446 17.001c-8.912 19.535-14.405 40.906-15.743 63.365h-30.858c-5.935 0-10.746 4.811-10.746 10.746s4.811 10.746 10.746 10.746h30.858c1.338 22.459 6.831 43.83 15.743 63.365l-29.446 17c-5.139 2.967-6.901 9.54-3.933 14.679 1.99 3.448 5.602 5.375 9.316 5.375 1.823 0 3.671-.464 5.363-1.441l28.785-16.619c32.043 52.538 90.327 87.751 156.778 87.751s124.735-35.213 156.779-87.752l28.785 16.619c1.693.977 3.54 1.441 5.363 1.441 3.714 0 7.326-1.927 9.316-5.375 2.968-5.139 1.206-11.712-3.933-14.679l-29.446-17c8.912-19.535 14.405-40.906 15.743-63.365h30.858c5.935 0 10.746-4.811 10.746-10.746-.001-5.934-4.812-10.745-10.747-10.745zm-292.036-159.759c0-42.685 35.247-77.412 78.572-77.412s78.572 34.727 78.572 77.412c0 2.376-.121 4.724-.338 7.045-23.734-11.147-50.258-17.396-78.234-17.396-27.975 0-54.499 6.249-78.232 17.395-.214-2.322-.34-4.669-.34-7.044zm-82.874 170.505c0-85.366 68.351-155.263 153.868-159.183v214.474c0 20.064-8.257 38.945-23.249 53.167l-37.74 35.797c-54.832-25.498-92.879-80.569-92.879-144.255zm105.924 149.652 33.568-31.84c9.138-8.667 16.195-19.109 20.85-30.451 4.655 11.341 11.713 21.783 20.85 30.451l34.163 32.403c-16.868 5.916-35.012 9.148-53.909 9.148-19.499.001-38.202-3.43-55.522-9.711zm122.606-4.713-38.462-36.482c-14.993-14.222-23.25-33.103-23.25-53.167 0-.272-.022-.539-.055-.802v-213.757c86.57 2.78 156.13 73.152 156.13 159.269 0 64.26-38.735 119.752-94.363 144.939z"/></g><path d="m182.533 234.41c-3.236 0-6.434-1.454-8.549-4.224-3.598-4.713-2.703-11.447 2.007-15.051.924-.707 22.923-17.394 46.961-23.118 5.775-1.378 11.568 2.191 12.943 7.965 1.375 5.773-2.191 11.568-7.964 12.943-19.514 4.646-38.698 19.14-38.889 19.286-1.947 1.482-4.238 2.199-6.509 2.199z" fill="#fff"/><path d="m300.973 210.482c-.24 0-.482-.008-.725-.024l-7.259-.484c-5.922-.395-10.402-5.515-10.008-11.437.395-5.922 5.513-10.408 11.437-10.008l7.259.484c5.922.395 10.402 5.515 10.008 11.437-.379 5.679-5.103 10.032-10.712 10.032z" fill="#fff"/></g></g></svg>