<svg id="Capa_1" enable-background="new 0 0 512 512" height="512" viewBox="0 0 512 512" width="512" xmlns="http://www.w3.org/2000/svg"><g><g><path d="m447.252 270.639c-1.725-76.651-64.397-138.26-141.463-138.26-70.985 0-129.757 52.27-139.939 120.42-3.249-.504-6.577-.769-9.967-.769-35.605 0-64.469 28.864-64.469 64.469 0 3.727.334 7.373.941 10.927h-12.37c-38.623 0-69.932 31.31-69.932 69.932 0 38.623 31.31 69.933 69.932 69.933h317.297c57.805 0 104.665-46.86 104.665-104.664 0-39.709-22.113-74.251-54.695-91.988z" fill="#c1e5ef"/><path d="m447.252 270.639c-1.725-76.651-64.397-138.26-141.463-138.26-8.701 0-17.216.79-25.483 2.294 47.193 9.425 84.242 46.957 92.954 94.403 2.102 11.447 8.274 21.671 17.103 29.253 18.667 16.031 30.492 39.804 30.492 66.34 0 48.275-39.135 87.41-87.41 87.41-1.334 0-264.989 0-264.989 0-24.914 0-46.173-15.607-54.564-37.572-2.536 7.335-3.904 15.214-3.837 23.426.313 38.549 32.297 69.359 70.848 69.359h316.38c57.805 0 104.665-46.86 104.665-104.664-.001-39.71-22.114-74.252-54.696-91.989z" fill="#a6aaed"/><path d="m41.414 157.396 8.258 23.219c.354.994 1.054 1.782 1.937 2.18l20.629 9.294c2.914 1.313 2.914 5.957 0 7.27l-20.629 9.294c-.883.398-1.583 1.186-1.937 2.18l-8.258 23.219c-1.167 3.28-5.292 3.28-6.459 0l-8.257-23.219c-.354-.994-1.053-1.782-1.937-2.18l-20.629-9.294c-2.915-1.313-2.915-5.957 0-7.27l20.629-9.294c.883-.398 1.583-1.186 1.937-2.18l8.257-23.219c1.166-3.28 5.292-3.28 6.459 0z" fill="#c1e5ef"/><path d="m166.858 36.482 6.125 17.223c.262.737.781 1.322 1.437 1.617l15.302 6.894c2.162.974 2.162 4.418 0 5.393l-15.302 6.894c-.655.295-1.174.88-1.437 1.617l-6.125 17.223c-.865 2.433-3.926 2.433-4.791 0l-6.125-17.223c-.262-.737-.781-1.322-1.437-1.617l-15.302-6.894c-2.162-.974-2.162-4.418 0-5.393l15.302-6.894c.655-.295 1.174-.88 1.437-1.617l6.125-17.223c.866-2.434 3.926-2.434 4.791 0z" fill="#c1e5ef"/><g fill="#96b4eb"><ellipse cx="469.489" cy="109.945" rx="18.031" ry="18.031" transform="matrix(.23 -.973 .973 .23 254.619 541.615)"/><circle cx="67.599" cy="87.467" r="7.778"/></g></g><g><g fill="#3c122c"><path d="m397.283 477.343c-1.186 0-317.297 0-317.297 0-44.105 0-79.986-35.881-79.986-79.985s35.881-79.985 79.985-79.985h1.381c-.004-.292-.005-.584-.005-.875 0-41.092 33.431-74.522 74.522-74.522.572 0 1.146.007 1.719.02 6.848-31.908 23.957-60.942 48.822-82.552 27.543-23.937 62.832-37.119 99.365-37.119 39.877 0 77.528 15.362 106.017 43.255 27.078 26.511 43.021 61.523 45.262 99.12 34.027 20.796 54.932 57.801 54.932 97.926 0 63.256-51.462 114.717-114.717 114.717zm0-20.105c52.169 0 94.612-42.443 94.612-94.612 0-34.69-18.948-66.554-49.449-83.158-3.163-1.721-5.163-5.003-5.244-8.603-1.594-70.819-60.546-128.434-131.413-128.434-64.583 0-120.47 48.086-129.997 111.853-.395 2.647-1.83 5.027-3.986 6.613-2.156 1.585-4.854 2.246-7.499 1.835-2.78-.431-5.614-.65-8.424-.65-30.005 0-54.417 24.411-54.417 54.417 0 3.03.269 6.137.798 9.234.499 2.92-.316 5.911-2.226 8.175s-4.721 3.57-7.683 3.57h-12.37c-33.018 0-59.88 26.862-59.88 59.88s26.862 59.88 59.88 59.88z"/><path d="m370.606 282.413c-3.331 0-6.032-2.701-6.032-6.032v-11.39c0-3.331 2.701-6.032 6.032-6.032s6.031 2.701 6.031 6.032v11.39c0 3.331-2.701 6.032-6.031 6.032z"/><path d="m417.565 370.377c-3.331 0-6.031-2.701-6.031-6.031v-11.39c0-3.331 2.701-6.031 6.031-6.031 3.331 0 6.031 2.701 6.031 6.031v11.39c.001 3.33-2.7 6.031-6.031 6.031z"/><path d="m378.809 357.56c-3.331 0-6.032-2.701-6.032-6.031v-11.39c0-3.331 2.701-6.031 6.032-6.031s6.031 2.701 6.031 6.031v11.39c.001 3.33-2.7 6.031-6.031 6.031z"/><path d="m304.107 375.882c-3.331 0-6.031-2.701-6.031-6.031v-11.39c0-3.331 2.701-6.032 6.031-6.032s6.031 2.701 6.031 6.032v11.39c0 3.33-2.7 6.031-6.031 6.031z"/></g><path d="m217.428 254.245c-1.439 0-2.899-.31-4.286-.965-5.02-2.371-7.168-8.363-4.796-13.382 5.43-11.499 12.956-21.798 22.367-30.614 4.052-3.796 10.414-3.588 14.209.464s3.588 10.414-.464 14.209c-7.449 6.977-13.65 15.458-17.933 24.526-1.716 3.633-5.329 5.762-9.097 5.762z" fill="#fff"/><path d="m264.722 209.045c-3.923 0-7.65-2.31-9.269-6.153-2.155-5.117.246-11.012 5.362-13.166 1.311-.552 2.638-1.079 3.946-1.568 5.199-1.942 10.991.699 12.934 5.901 1.942 5.201-.7 10.991-5.901 12.934-1.049.392-2.118.816-3.174 1.262-1.274.536-2.597.79-3.898.79z" fill="#fff"/></g></g></svg>